<?xml version="1.0"?>
<svg height="48px" viewBox="0 -960 960 960" fill="#916931" width="24px" version="1.1" id="svg65" xmlns:sodipodi-0.dtd="http://sodipodi.sourceforge.net/DTD/sodipodi-0.dtd" xmlns:inkscape="http://www.inkscape.org/namespaces/inkscape" xmlns:sodipodi="http://sodipodi.sourceforge.net/DTD/sodipodi-0.dtd" xmlns="http://www.w3.org/2000/svg" xmlns:svg="http://www.w3.org/2000/svg">
  <defs id="defs69"></defs>
  <namedview id="namedview67" pagecolor="#ffffff" bordercolor="#000000" borderopacity="0.25" showgrid="false"></namedview>
  <path d="M200-160v-80h560v80H200Zm0-140-51-321q-2 0-4.5.5t-4.5.5q-25 0-42.5-17.5T80-680q0-25 17.5-42.5T140-740q25 0 42.5 17.5T200-680q0 7-1.5 13t-3.5 11l125 56 125-171q-11-8-18-21t-7-28q0-25 17.5-42.5T480-880q25 0 42.5 17.5T540-820q0 15-7 28t-18 21l125 171 125-56q-2-5-3.5-11t-1.5-13q0-25 17.5-42.5T820-740q25 0 42.5 17.5T880-680q0 25-17.5 42.5T820-620q-2 0-4.5-.5t-4.5-.5l-51 321H200Zm68-80h424l26-167-105 46-133-183-133 183-105-46 26 167Zm212 0Z" id="path63"></path>
  <path style="fill:#ffd42a;stroke-width:0.0573477" d="m 5.040027,28.458781 c -0.00361,-0.0079 -0.294141,-1.807885 -0.6456191,-4 l -0.6390511,-3.985663 -0.3723021,-0.033 C 2.9320812,20.400147 2.7331824,20.302475 2.4275511,19.970904 2.1492088,19.668938 2.0403928,19.379709 2.0447403,18.953405 c 0.00626,-0.614124 0.4284937,-1.174216 1.0169269,-1.348962 0.3580787,-0.106338 0.5150026,-0.106338 0.8730814,0 0.3628357,0.10775 0.7211311,0.413559 0.8877135,0.757673 0.1249793,0.258172 0.1524756,0.576873 0.097006,1.124365 -0.015947,0.157401 0.011802,0.172863 1.526076,0.850353 1.4841876,0.664031 1.546013,0.686087 1.6403453,0.585204 0.1731521,-0.185177 3.0395586,-4.137346 3.0395586,-4.190909 0,-0.0284 -0.06793,-0.114201 -0.150959,-0.190667 -0.247697,-0.228121 -0.421319,-0.664142 -0.421957,-1.059668 -0.0021,-1.304651 1.607668,-1.942386 2.50198,-0.991196 0.299746,0.318811 0.390367,0.548888 0.391616,0.994273 9.52e-4,0.338431 -0.02544,0.449511 -0.168169,0.707767 -0.09311,0.168483 -0.230797,0.354711 -0.305967,0.41384 l -0.136673,0.107507 0.133156,0.18831 c 0.602557,0.852143 2.990018,4.09131 3.024682,4.103711 0.02423,0.0087 0.746153,-0.299675 1.60428,-0.685206 1.235677,-0.555153 1.552914,-0.719475 1.52506,-0.789952 -0.08084,-0.204552 -0.09451,-0.703516 -0.02598,-0.948291 0.08823,-0.315126 0.443318,-0.733971 0.767096,-0.904832 0.177936,-0.0939 0.33646,-0.124932 0.638177,-0.124932 0.488017,0 0.769362,0.129943 1.103681,0.509749 0.799884,0.908716 0.153748,2.382902 -1.044427,2.382902 -0.174525,0 -0.317318,0.0099 -0.317318,0.02201 0,0.0121 -0.283871,1.807484 -0.630825,3.989736 -0.346953,2.182252 -0.630824,3.978801 -0.630824,3.992332 0,0.02546 -13.9303912,0.03572 -13.9420522,0.01026 z m 12.30494,-2.064516 c 0.08165,-0.374176 0.607441,-3.921191 0.593065,-4.000827 -0.01368,-0.0758 -0.260452,0.01387 -1.301301,0.472816 -0.706428,0.311492 -1.303692,0.545626 -1.327252,0.520298 -0.02356,-0.02533 -0.770601,-1.047385 -1.660091,-2.271238 -0.889491,-1.223854 -1.638618,-2.217402 -1.664727,-2.207886 -0.02611,0.0095 -0.776171,1.023755 -1.666801,2.253862 -0.8906308,1.230108 -1.6257315,2.244932 -1.6335572,2.255166 -0.00783,0.01023 -0.6035429,-0.23939 -1.3238162,-0.55472 -0.7202735,-0.31533 -1.3168327,-0.566083 -1.3256871,-0.557228 -0.00885,0.0089 0.1316155,0.961704 0.3121551,2.117444 l 0.3282539,2.101345 h 5.3208015 5.320801 z" id="path329" transform="matrix(40,0,0,40,0,-1440)"></path>
  <path style="fill:#ffd42a;stroke-width:0.0573477" d="m 5.046595,30.996416 v -0.974911 h 6.967742 6.967742 v 0.974911 0.97491 H 12.014337 5.046595 Z" id="path331" transform="matrix(40,0,0,40,0,-1440)"></path>
</svg>